# xmcd
#
# Track frame offsets:
#	150
#	12606
#	24015
#	36170
#	48869
#	58405
#	69220
#	80992
#	92585
#	103830
#	115160
#	125195
#	136698
#	148303
#	158670
#	171044
#	183182
#	191661
#	201601
#	213738
#
# Disc length: 3114 seconds
#
# Revision: 1
# Processed by: cddbd v1.5.2PL0 Copyright (c) Steve Scherf et al.
# Submitted via: FairStars CD Ripper 1.80
#
DISCID=290c2814
DTITLE=Jerry Butler - The Soul Of Jerry Butler cd1
DYEAR=2015
DGENRE=Soul
TTITLE0=He Will Break Your Heart
TTITLE1=Teardrops From My Eyes
TTITLE2=Moon River
TTITLE3=Find Another Girl
TTITLE4=Have A Good Time
TTITLE5=I'm A Telling You
TTITLE6=One By One
TTITLE7=Give Me Your Love
TTITLE8=It's Too Late
TTITLE9=Where Do I Turn
TTITLE10=Aware Of Love
TTITLE11=Without Your Love
TTITLE12=Couldn't Go To Sleep
TTITLE13=Don't Take Your Love From Me
TTITLE14=I See A Fool
TTITLE15=I Was Wrong
TTITLE16=Is It True Love
TTITLE17=I'm The One
TTITLE18=You Can Run (But You Can't Hide)
TTITLE19=September Son
EXTD=
EXTT0=
EXTT1=
EXTT2=
EXTT3=
EXTT4=
EXTT5=
EXTT6=
EXTT7=
EXTT8=
EXTT9=
EXTT10=
EXTT11=
EXTT12=
EXTT13=
EXTT14=
EXTT15=
EXTT16=
EXTT17=
EXTT18=
EXTT19=
PLAYORDER=
